<mxfile host="Electron" modified="2023-10-28T06:54:37.014Z" agent="Mozilla/5.0 (Windows NT 10.0; Win64; x64) AppleWebKit/537.36 (KHTML, like Gecko) draw.io/21.7.5 Chrome/114.0.5735.289 Electron/25.8.1 Safari/537.36" etag="sROtM9kwItZeFwmaHJmG" version="21.7.5" type="device">
  <diagram name="HTTPS" id="1JzbTgagu3kk1AN8X_Bk">
    <mxGraphModel dx="1034" dy="605" grid="1" gridSize="10" guides="1" tooltips="1" connect="1" arrows="1" fold="1" page="1" pageScale="1" pageWidth="3300" pageHeight="4681" math="0" shadow="0">
      <root>
        <mxCell id="0" />
        <mxCell id="1" parent="0" />
        <mxCell id="krHwBFD0gNlDfbNxc9xL-1" value="&lt;b&gt;Client&lt;/b&gt;" style="shape=umlLifeline;perimeter=lifelinePerimeter;whiteSpace=wrap;html=1;container=1;dropTarget=0;collapsible=0;recursiveResize=0;outlineConnect=0;portConstraint=eastwest;newEdgeStyle={&quot;edgeStyle&quot;:&quot;elbowEdgeStyle&quot;,&quot;elbow&quot;:&quot;vertical&quot;,&quot;curved&quot;:0,&quot;rounded&quot;:0};hachureGap=4;fontFamily=Architects Daughter;fontSource=https%3A%2F%2Ffonts.googleapis.com%2Fcss%3Ffamily%3DArchitects%2BDaughter;fontSize=20;strokeWidth=2;" vertex="1" parent="1">
          <mxGeometry x="250" y="220" width="100" height="480" as="geometry" />
        </mxCell>
        <mxCell id="krHwBFD0gNlDfbNxc9xL-2" value="&lt;b&gt;Server&lt;/b&gt;" style="shape=umlLifeline;perimeter=lifelinePerimeter;whiteSpace=wrap;html=1;container=1;dropTarget=0;collapsible=0;recursiveResize=0;outlineConnect=0;portConstraint=eastwest;newEdgeStyle={&quot;edgeStyle&quot;:&quot;elbowEdgeStyle&quot;,&quot;elbow&quot;:&quot;vertical&quot;,&quot;curved&quot;:0,&quot;rounded&quot;:0};hachureGap=4;fontFamily=Architects Daughter;fontSource=https%3A%2F%2Ffonts.googleapis.com%2Fcss%3Ffamily%3DArchitects%2BDaughter;fontSize=20;strokeWidth=2;" vertex="1" parent="1">
          <mxGeometry x="831" y="220" width="100" height="480" as="geometry" />
        </mxCell>
        <mxCell id="krHwBFD0gNlDfbNxc9xL-4" value="" style="endArrow=open;startArrow=none;endFill=0;startFill=0;endSize=8;html=1;verticalAlign=bottom;labelBackgroundColor=none;rounded=0;hachureGap=4;fontFamily=Architects Daughter;fontSource=https%3A%2F%2Ffonts.googleapis.com%2Fcss%3Ffamily%3DArchitects%2BDaughter;fontSize=16;strokeWidth=2;" edge="1" parent="1" target="krHwBFD0gNlDfbNxc9xL-2">
          <mxGeometry width="160" relative="1" as="geometry">
            <mxPoint x="300" y="296" as="sourcePoint" />
            <mxPoint x="709" y="296" as="targetPoint" />
          </mxGeometry>
        </mxCell>
        <mxCell id="krHwBFD0gNlDfbNxc9xL-5" value="" style="endArrow=none;startArrow=open;endFill=0;startFill=0;endSize=8;html=1;verticalAlign=bottom;labelBackgroundColor=none;rounded=0;hachureGap=4;fontFamily=Architects Daughter;fontSource=https%3A%2F%2Ffonts.googleapis.com%2Fcss%3Ffamily%3DArchitects%2BDaughter;fontSize=16;strokeWidth=2;" edge="1" parent="1">
          <mxGeometry width="160" relative="1" as="geometry">
            <mxPoint x="300" y="646" as="sourcePoint" />
            <mxPoint x="880" y="646" as="targetPoint" />
          </mxGeometry>
        </mxCell>
        <mxCell id="krHwBFD0gNlDfbNxc9xL-7" value="&lt;font style=&quot;font-size: 15px;&quot; face=&quot;Comic Sans MS&quot;&gt;&lt;b&gt;Syn&lt;/b&gt;&lt;/font&gt;" style="text;html=1;align=center;verticalAlign=middle;resizable=0;points=[];autosize=1;strokeColor=none;fillColor=none;fontSize=20;fontFamily=Architects Daughter;strokeWidth=0;" vertex="1" parent="1">
          <mxGeometry x="565" y="265" width="50" height="40" as="geometry" />
        </mxCell>
        <mxCell id="krHwBFD0gNlDfbNxc9xL-8" value="" style="endArrow=none;startArrow=open;endFill=0;startFill=0;endSize=8;html=1;verticalAlign=bottom;labelBackgroundColor=none;rounded=0;hachureGap=4;fontFamily=Architects Daughter;fontSource=https%3A%2F%2Ffonts.googleapis.com%2Fcss%3Ffamily%3DArchitects%2BDaughter;fontSize=16;strokeWidth=2;" edge="1" parent="1" target="krHwBFD0gNlDfbNxc9xL-2">
          <mxGeometry width="160" relative="1" as="geometry">
            <mxPoint x="300" y="325" as="sourcePoint" />
            <mxPoint x="709" y="325" as="targetPoint" />
          </mxGeometry>
        </mxCell>
        <mxCell id="krHwBFD0gNlDfbNxc9xL-9" value="&lt;font style=&quot;font-size: 15px;&quot; face=&quot;Comic Sans MS&quot;&gt;&lt;b&gt;Syn, Ack&lt;/b&gt;&lt;/font&gt;" style="text;html=1;align=center;verticalAlign=middle;resizable=0;points=[];autosize=1;strokeColor=none;fillColor=none;fontSize=20;fontFamily=Architects Daughter;strokeWidth=0;" vertex="1" parent="1">
          <mxGeometry x="544" y="295" width="90" height="40" as="geometry" />
        </mxCell>
        <mxCell id="krHwBFD0gNlDfbNxc9xL-10" value="" style="endArrow=open;startArrow=none;endFill=0;startFill=0;endSize=8;html=1;verticalAlign=bottom;labelBackgroundColor=none;rounded=0;hachureGap=4;fontFamily=Architects Daughter;fontSource=https%3A%2F%2Ffonts.googleapis.com%2Fcss%3Ffamily%3DArchitects%2BDaughter;fontSize=16;strokeWidth=2;" edge="1" parent="1" target="krHwBFD0gNlDfbNxc9xL-2">
          <mxGeometry width="160" relative="1" as="geometry">
            <mxPoint x="301" y="351" as="sourcePoint" />
            <mxPoint x="710" y="351" as="targetPoint" />
          </mxGeometry>
        </mxCell>
        <mxCell id="krHwBFD0gNlDfbNxc9xL-11" value="&lt;font style=&quot;font-size: 15px;&quot; face=&quot;Comic Sans MS&quot;&gt;&lt;b&gt;Ack&lt;/b&gt;&lt;/font&gt;" style="text;html=1;align=center;verticalAlign=middle;resizable=0;points=[];autosize=1;strokeColor=none;fillColor=none;fontSize=20;fontFamily=Architects Daughter;strokeWidth=0;" vertex="1" parent="1">
          <mxGeometry x="567" y="320" width="50" height="40" as="geometry" />
        </mxCell>
        <mxCell id="krHwBFD0gNlDfbNxc9xL-12" value="" style="endArrow=open;startArrow=none;endFill=0;startFill=0;endSize=8;html=1;verticalAlign=bottom;labelBackgroundColor=none;rounded=0;hachureGap=4;fontFamily=Architects Daughter;fontSource=https%3A%2F%2Ffonts.googleapis.com%2Fcss%3Ffamily%3DArchitects%2BDaughter;fontSize=16;strokeWidth=2;" edge="1" parent="1" target="krHwBFD0gNlDfbNxc9xL-2">
          <mxGeometry width="160" relative="1" as="geometry">
            <mxPoint x="303" y="400" as="sourcePoint" />
            <mxPoint x="712" y="400" as="targetPoint" />
          </mxGeometry>
        </mxCell>
        <mxCell id="krHwBFD0gNlDfbNxc9xL-13" value="&lt;font style=&quot;font-size: 15px;&quot; face=&quot;Comic Sans MS&quot;&gt;&lt;b&gt;Clinet Hello:&lt;/b&gt;&lt;/font&gt;&lt;b style=&quot;border-color: var(--border-color); font-family: &amp;quot;Comic Sans MS&amp;quot;; font-size: 15px;&quot;&gt;Random1,Cipher Suites&lt;/b&gt;" style="text;html=1;align=center;verticalAlign=middle;resizable=0;points=[];autosize=1;strokeColor=none;fillColor=none;fontSize=20;fontFamily=Architects Daughter;strokeWidth=0;" vertex="1" parent="1">
          <mxGeometry x="447" y="370" width="280" height="40" as="geometry" />
        </mxCell>
        <mxCell id="krHwBFD0gNlDfbNxc9xL-17" value="" style="endArrow=none;startArrow=open;endFill=0;startFill=0;endSize=8;html=1;verticalAlign=bottom;labelBackgroundColor=none;rounded=0;hachureGap=4;fontFamily=Architects Daughter;fontSource=https%3A%2F%2Ffonts.googleapis.com%2Fcss%3Ffamily%3DArchitects%2BDaughter;fontSize=16;strokeWidth=2;" edge="1" parent="1" target="krHwBFD0gNlDfbNxc9xL-2">
          <mxGeometry width="160" relative="1" as="geometry">
            <mxPoint x="302" y="429" as="sourcePoint" />
            <mxPoint x="711" y="429" as="targetPoint" />
          </mxGeometry>
        </mxCell>
        <mxCell id="krHwBFD0gNlDfbNxc9xL-18" value="&lt;font style=&quot;font-size: 15px;&quot; face=&quot;Comic Sans MS&quot;&gt;&lt;b&gt;Server Hello:Random2,Cipher Suite&lt;/b&gt;&lt;/font&gt;" style="text;html=1;align=center;verticalAlign=middle;resizable=0;points=[];autosize=1;strokeColor=none;fillColor=none;fontSize=20;fontFamily=Architects Daughter;strokeWidth=0;" vertex="1" parent="1">
          <mxGeometry x="444" y="399" width="280" height="40" as="geometry" />
        </mxCell>
        <mxCell id="krHwBFD0gNlDfbNxc9xL-20" value="" style="endArrow=none;startArrow=open;endFill=0;startFill=0;endSize=8;html=1;verticalAlign=bottom;labelBackgroundColor=none;rounded=0;hachureGap=4;fontFamily=Architects Daughter;fontSource=https%3A%2F%2Ffonts.googleapis.com%2Fcss%3Ffamily%3DArchitects%2BDaughter;fontSize=16;strokeWidth=2;" edge="1" parent="1">
          <mxGeometry width="160" relative="1" as="geometry">
            <mxPoint x="302" y="488" as="sourcePoint" />
            <mxPoint x="880" y="488" as="targetPoint" />
          </mxGeometry>
        </mxCell>
        <mxCell id="krHwBFD0gNlDfbNxc9xL-21" value="&lt;font style=&quot;font-size: 15px;&quot; face=&quot;Comic Sans MS&quot;&gt;&lt;b&gt;Certificate,&lt;/b&gt;&lt;/font&gt;&lt;b style=&quot;border-color: var(--border-color); font-family: &amp;quot;Comic Sans MS&amp;quot;; font-size: 15px;&quot;&gt;Server Key Exchange,&lt;/b&gt;&lt;b style=&quot;border-color: var(--border-color); font-family: &amp;quot;Comic Sans MS&amp;quot;; font-size: 15px;&quot;&gt;Server Hello Done&lt;/b&gt;" style="text;html=1;align=center;verticalAlign=middle;resizable=0;points=[];autosize=1;strokeColor=none;fillColor=none;fontSize=20;fontFamily=Architects Daughter;strokeWidth=0;" vertex="1" parent="1">
          <mxGeometry x="401" y="458" width="400" height="40" as="geometry" />
        </mxCell>
        <mxCell id="krHwBFD0gNlDfbNxc9xL-26" value="" style="endArrow=open;startArrow=none;endFill=0;startFill=0;endSize=8;html=1;verticalAlign=bottom;labelBackgroundColor=none;rounded=0;hachureGap=4;fontFamily=Architects Daughter;fontSource=https%3A%2F%2Ffonts.googleapis.com%2Fcss%3Ffamily%3DArchitects%2BDaughter;fontSize=16;strokeWidth=2;" edge="1" parent="1">
          <mxGeometry width="160" relative="1" as="geometry">
            <mxPoint x="301" y="519" as="sourcePoint" />
            <mxPoint x="880" y="519" as="targetPoint" />
          </mxGeometry>
        </mxCell>
        <mxCell id="krHwBFD0gNlDfbNxc9xL-27" value="&lt;font style=&quot;font-size: 15px;&quot; face=&quot;Comic Sans MS&quot;&gt;&lt;b&gt;Client Key Exchange,Change Cipher Spec,Encrypted Handshake Message&lt;/b&gt;&lt;/font&gt;" style="text;html=1;align=center;verticalAlign=middle;resizable=0;points=[];autosize=1;strokeColor=none;fillColor=none;fontSize=20;fontFamily=Architects Daughter;strokeWidth=0;" vertex="1" parent="1">
          <mxGeometry x="316" y="489" width="550" height="40" as="geometry" />
        </mxCell>
        <mxCell id="krHwBFD0gNlDfbNxc9xL-28" value="" style="endArrow=none;startArrow=open;endFill=0;startFill=0;endSize=8;html=1;verticalAlign=bottom;labelBackgroundColor=none;rounded=0;hachureGap=4;fontFamily=Architects Daughter;fontSource=https%3A%2F%2Ffonts.googleapis.com%2Fcss%3Ffamily%3DArchitects%2BDaughter;fontSize=16;strokeWidth=2;" edge="1" parent="1">
          <mxGeometry width="160" relative="1" as="geometry">
            <mxPoint x="302" y="552" as="sourcePoint" />
            <mxPoint x="880" y="552" as="targetPoint" />
          </mxGeometry>
        </mxCell>
        <mxCell id="krHwBFD0gNlDfbNxc9xL-29" value="&lt;font face=&quot;Comic Sans MS&quot;&gt;&lt;span style=&quot;font-size: 15px;&quot;&gt;&lt;b&gt;Change Cipher Spec,Encrypted Handshake Message&lt;/b&gt;&lt;/span&gt;&lt;/font&gt;" style="text;html=1;align=center;verticalAlign=middle;resizable=0;points=[];autosize=1;strokeColor=none;fillColor=none;fontSize=20;fontFamily=Architects Daughter;strokeWidth=0;" vertex="1" parent="1">
          <mxGeometry x="401" y="521" width="400" height="40" as="geometry" />
        </mxCell>
        <mxCell id="krHwBFD0gNlDfbNxc9xL-31" value="&lt;font face=&quot;Comic Sans MS&quot;&gt;&lt;span style=&quot;font-size: 15px;&quot;&gt;&lt;b&gt;Application Data&lt;/b&gt;&lt;/span&gt;&lt;/font&gt;" style="text;html=1;align=center;verticalAlign=middle;resizable=0;points=[];autosize=1;strokeColor=none;fillColor=none;fontSize=20;fontFamily=Architects Daughter;strokeWidth=0;" vertex="1" parent="1">
          <mxGeometry x="512" y="614" width="140" height="40" as="geometry" />
        </mxCell>
        <mxCell id="krHwBFD0gNlDfbNxc9xL-32" value="" style="endArrow=none;startArrow=open;endFill=0;startFill=0;endSize=8;html=1;verticalAlign=bottom;labelBackgroundColor=none;rounded=0;hachureGap=4;fontFamily=Architects Daughter;fontSource=https%3A%2F%2Ffonts.googleapis.com%2Fcss%3Ffamily%3DArchitects%2BDaughter;fontSize=16;strokeWidth=2;" edge="1" parent="1">
          <mxGeometry width="160" relative="1" as="geometry">
            <mxPoint x="301" y="674" as="sourcePoint" />
            <mxPoint x="881" y="674" as="targetPoint" />
          </mxGeometry>
        </mxCell>
        <mxCell id="krHwBFD0gNlDfbNxc9xL-33" value="&lt;font face=&quot;Comic Sans MS&quot;&gt;&lt;span style=&quot;font-size: 15px;&quot;&gt;&lt;b&gt;......&lt;/b&gt;&lt;/span&gt;&lt;/font&gt;" style="text;html=1;align=center;verticalAlign=middle;resizable=0;points=[];autosize=1;strokeColor=none;fillColor=none;fontSize=20;fontFamily=Architects Daughter;strokeWidth=0;" vertex="1" parent="1">
          <mxGeometry x="551" y="642" width="60" height="40" as="geometry" />
        </mxCell>
      </root>
    </mxGraphModel>
  </diagram>
</mxfile>
